<?xml version="1.0" standalone="no"?>
<!DOCTYPE svg PUBLIC "-//W3C//DTD SVG 1.1//EN" "http://www.w3.org/Graphics/SVG/1.1/DTD/svg11.dtd">
<svg version="1.1" width="1200" height="2118" onload="init(evt)" viewBox="0 0 1200 2118" xmlns="http://www.w3.org/2000/svg" xmlns:xlink="http://www.w3.org/1999/xlink">
<!-- Flame graph stack visualization. See https://github.com/brendangregg/FlameGraph for latest version, and http://www.brendangregg.com/flamegraphs.html for examples. -->
<!-- NOTES:  -->
<defs>
	<linearGradient id="background" y1="0" y2="1" x1="0" x2="0" >
		<stop stop-color="#eeeeee" offset="5%" />
		<stop stop-color="#eeeeb0" offset="95%" />
	</linearGradient>
</defs>
<style type="text/css">
	text { font-family:Verdana; font-size:12px; fill:rgb(0,0,0); }
	#search { opacity:0.1; cursor:pointer; }
	#search:hover, #search.show { opacity:1; }
	#subtitle { text-anchor:middle; font-color:rgb(160,160,160); }
	#title { text-anchor:middle; font-size:17px}
	#unzoom { cursor:pointer; }
	#frames > *:hover { stroke:black; stroke-width:0.5; cursor:pointer; }
	.hide { display:none; }
	.parent { opacity:0.5; }
</style>
<script type="text/ecmascript">
<![CDATA[
	"use strict";
	var details, searchbtn, unzoombtn, matchedtxt, svg, searching;
	function init(evt) {
		details = document.getElementById("details").firstChild;
		searchbtn = document.getElementById("search");
		unzoombtn = document.getElementById("unzoom");
		matchedtxt = document.getElementById("matched");
		svg = document.getElementsByTagName("svg")[0];
		searching = 0;
	}

	window.addEventListener("click", function(e) {
		var target = find_group(e.target);
		if (target) {
			if (target.nodeName == "a") {
				if (e.ctrlKey === false) return;
				e.preventDefault();
			}
			if (target.classList.contains("parent")) unzoom();
			zoom(target);
		}
		else if (e.target.id == "unzoom") unzoom();
		else if (e.target.id == "search") search_prompt();
	}, false)

	// mouse-over for info
	// show
	window.addEventListener("mouseover", function(e) {
		var target = find_group(e.target);
		if (target) details.nodeValue = "Function: " + g_to_text(target);
	}, false)

	// clear
	window.addEventListener("mouseout", function(e) {
		var target = find_group(e.target);
		if (target) details.nodeValue = ' ';
	}, false)

	// ctrl-F for search
	window.addEventListener("keydown",function (e) {
		if (e.keyCode === 114 || (e.ctrlKey && e.keyCode === 70)) {
			e.preventDefault();
			search_prompt();
		}
	}, false)

	// functions
	function find_child(node, selector) {
		var children = node.querySelectorAll(selector);
		if (children.length) return children[0];
		return;
	}
	function find_group(node) {
		var parent = node.parentElement;
		if (!parent) return;
		if (parent.id == "frames") return node;
		return find_group(parent);
	}
	function orig_save(e, attr, val) {
		if (e.attributes["_orig_" + attr] != undefined) return;
		if (e.attributes[attr] == undefined) return;
		if (val == undefined) val = e.attributes[attr].value;
		e.setAttribute("_orig_" + attr, val);
	}
	function orig_load(e, attr) {
		if (e.attributes["_orig_"+attr] == undefined) return;
		e.attributes[attr].value = e.attributes["_orig_" + attr].value;
		e.removeAttribute("_orig_"+attr);
	}
	function g_to_text(e) {
		var text = find_child(e, "title").firstChild.nodeValue;
		return (text)
	}
	function g_to_func(e) {
		var func = g_to_text(e);
		// if there's any manipulation we want to do to the function
		// name before it's searched, do it here before returning.
		return (func);
	}
	function update_text(e) {
		var r = find_child(e, "rect");
		var t = find_child(e, "text");
		var w = parseFloat(r.attributes.width.value) -3;
		var txt = find_child(e, "title").textContent.replace(/\([^(]*\)$/,"");
		t.attributes.x.value = parseFloat(r.attributes.x.value) + 3;

		// Smaller than this size won't fit anything
		if (w < 2 * 12 * 0.59) {
			t.textContent = "";
			return;
		}

		t.textContent = txt;
		// Fit in full text width
		if (/^ *$/.test(txt) || t.getSubStringLength(0, txt.length) < w)
			return;

		for (var x = txt.length - 2; x > 0; x--) {
			if (t.getSubStringLength(0, x + 2) <= w) {
				t.textContent = txt.substring(0, x) + "..";
				return;
			}
		}
		t.textContent = "";
	}

	// zoom
	function zoom_reset(e) {
		if (e.attributes != undefined) {
			orig_load(e, "x");
			orig_load(e, "width");
		}
		if (e.childNodes == undefined) return;
		for (var i = 0, c = e.childNodes; i < c.length; i++) {
			zoom_reset(c[i]);
		}
	}
	function zoom_child(e, x, ratio) {
		if (e.attributes != undefined) {
			if (e.attributes.x != undefined) {
				orig_save(e, "x");
				e.attributes.x.value = (parseFloat(e.attributes.x.value) - x - 10) * ratio + 10;
				if (e.tagName == "text")
					e.attributes.x.value = find_child(e.parentNode, "rect[x]").attributes.x.value + 3;
			}
			if (e.attributes.width != undefined) {
				orig_save(e, "width");
				e.attributes.width.value = parseFloat(e.attributes.width.value) * ratio;
			}
		}

		if (e.childNodes == undefined) return;
		for (var i = 0, c = e.childNodes; i < c.length; i++) {
			zoom_child(c[i], x - 10, ratio);
		}
	}
	function zoom_parent(e) {
		if (e.attributes) {
			if (e.attributes.x != undefined) {
				orig_save(e, "x");
				e.attributes.x.value = 10;
			}
			if (e.attributes.width != undefined) {
				orig_save(e, "width");
				e.attributes.width.value = parseInt(svg.width.baseVal.value) - (10 * 2);
			}
		}
		if (e.childNodes == undefined) return;
		for (var i = 0, c = e.childNodes; i < c.length; i++) {
			zoom_parent(c[i]);
		}
	}
	function zoom(node) {
		var attr = find_child(node, "rect").attributes;
		var width = parseFloat(attr.width.value);
		var xmin = parseFloat(attr.x.value);
		var xmax = parseFloat(xmin + width);
		var ymin = parseFloat(attr.y.value);
		var ratio = (svg.width.baseVal.value - 2 * 10) / width;

		// XXX: Workaround for JavaScript float issues (fix me)
		var fudge = 0.0001;

		unzoombtn.classList.remove("hide");

		var el = document.getElementById("frames").children;
		for (var i = 0; i < el.length; i++) {
			var e = el[i];
			var a = find_child(e, "rect").attributes;
			var ex = parseFloat(a.x.value);
			var ew = parseFloat(a.width.value);
			var upstack;
			// Is it an ancestor
			if (0 == 0) {
				upstack = parseFloat(a.y.value) > ymin;
			} else {
				upstack = parseFloat(a.y.value) < ymin;
			}
			if (upstack) {
				// Direct ancestor
				if (ex <= xmin && (ex+ew+fudge) >= xmax) {
					e.classList.add("parent");
					zoom_parent(e);
					update_text(e);
				}
				// not in current path
				else
					e.classList.add("hide");
			}
			// Children maybe
			else {
				// no common path
				if (ex < xmin || ex + fudge >= xmax) {
					e.classList.add("hide");
				}
				else {
					zoom_child(e, xmin, ratio);
					update_text(e);
				}
			}
		}
	}
	function unzoom() {
		unzoombtn.classList.add("hide");
		var el = document.getElementById("frames").children;
		for(var i = 0; i < el.length; i++) {
			el[i].classList.remove("parent");
			el[i].classList.remove("hide");
			zoom_reset(el[i]);
			update_text(el[i]);
		}
	}

	// search
	function reset_search() {
		var el = document.querySelectorAll("#frames rect");
		for (var i = 0; i < el.length; i++) {
			orig_load(el[i], "fill")
		}
	}
	function search_prompt() {
		if (!searching) {
			var term = prompt("Enter a search term (regexp " +
			    "allowed, eg: ^ext4_)", "");
			if (term != null) {
				search(term)
			}
		} else {
			reset_search();
			searching = 0;
			searchbtn.classList.remove("show");
			searchbtn.firstChild.nodeValue = "Search"
			matchedtxt.classList.add("hide");
			matchedtxt.firstChild.nodeValue = ""
		}
	}
	function search(term) {
		var re = new RegExp(term);
		var el = document.getElementById("frames").children;
		var matches = new Object();
		var maxwidth = 0;
		for (var i = 0; i < el.length; i++) {
			var e = el[i];
			var func = g_to_func(e);
			var rect = find_child(e, "rect");
			if (func == null || rect == null)
				continue;

			// Save max width. Only works as we have a root frame
			var w = parseFloat(rect.attributes.width.value);
			if (w > maxwidth)
				maxwidth = w;

			if (func.match(re)) {
				// highlight
				var x = parseFloat(rect.attributes.x.value);
				orig_save(rect, "fill");
				rect.attributes.fill.value = "rgb(230,0,230)";

				// remember matches
				if (matches[x] == undefined) {
					matches[x] = w;
				} else {
					if (w > matches[x]) {
						// overwrite with parent
						matches[x] = w;
					}
				}
				searching = 1;
			}
		}
		if (!searching)
			return;

		searchbtn.classList.add("show");
		searchbtn.firstChild.nodeValue = "Reset Search";

		// calculate percent matched, excluding vertical overlap
		var count = 0;
		var lastx = -1;
		var lastw = 0;
		var keys = Array();
		for (k in matches) {
			if (matches.hasOwnProperty(k))
				keys.push(k);
		}
		// sort the matched frames by their x location
		// ascending, then width descending
		keys.sort(function(a, b){
			return a - b;
		});
		// Step through frames saving only the biggest bottom-up frames
		// thanks to the sort order. This relies on the tree property
		// where children are always smaller than their parents.
		var fudge = 0.0001;	// JavaScript floating point
		for (var k in keys) {
			var x = parseFloat(keys[k]);
			var w = matches[keys[k]];
			if (x >= lastx + lastw - fudge) {
				count += w;
				lastx = x;
				lastw = w;
			}
		}
		// display matched percent
		matchedtxt.classList.remove("hide");
		var pct = 100 * count / maxwidth;
		if (pct != 100) pct = pct.toFixed(1)
		matchedtxt.firstChild.nodeValue = "Matched: " + pct + "%";
	}
]]>
</script>
<rect x="0.0" y="0" width="1200.0" height="2118.0" fill="url(#background)"  />
<text id="title" x="600.00" y="24" >Flame Graph</text>
<text id="details" x="10.00" y="2101" > </text>
<text id="unzoom" x="10.00" y="24" class="hide">Reset Zoom</text>
<text id="search" x="1090.00" y="24" >Search</text>
<text id="matched" x="1090.00" y="2101" > </text>
<g id="frames">
<g >
<title>[unknown] (6,000 samples, 0.08%)</title><rect x="982.7" y="661" width="1.0" height="15.0" fill="rgb(206,72,16)" rx="2" ry="2" />
<text  x="985.73" y="671.5" ></text>
</g>
<g >
<title>[unknown] (6,012 samples, 0.08%)</title><rect x="982.7" y="693" width="1.0" height="15.0" fill="rgb(208,93,7)" rx="2" ry="2" />
<text  x="985.73" y="703.5" ></text>
</g>
<g >
<title>[unknown] (9,029 samples, 0.13%)</title><rect x="982.3" y="1989" width="1.4" height="15.0" fill="rgb(213,36,48)" rx="2" ry="2" />
<text  x="985.25" y="1999.5" ></text>
</g>
<g >
<title>[unknown] (6,647 samples, 0.09%)</title><rect x="982.6" y="1765" width="1.1" height="15.0" fill="rgb(254,105,8)" rx="2" ry="2" />
<text  x="985.64" y="1775.5" ></text>
</g>
<g >
<title>[unknown] (5,900 samples, 0.08%)</title><rect x="982.7" y="421" width="1.0" height="15.0" fill="rgb(219,117,33)" rx="2" ry="2" />
<text  x="985.75" y="431.5" ></text>
</g>
<g >
<title>H5Z_filter_shuffle (797,092 samples, 11.19%)</title><rect x="13.9" y="2037" width="132.0" height="15.0" fill="rgb(212,175,3)" rx="2" ry="2" />
<text  x="16.89" y="2047.5" >H5Z_filter_shuffle</text>
</g>
<g >
<title>[unknown] (6,224 samples, 0.09%)</title><rect x="982.7" y="1221" width="1.0" height="15.0" fill="rgb(253,44,26)" rx="2" ry="2" />
<text  x="985.70" y="1231.5" ></text>
</g>
<g >
<title>free (3,379 samples, 0.05%)</title><rect x="1175.4" y="2037" width="0.6" height="15.0" fill="rgb(239,194,39)" rx="2" ry="2" />
<text  x="1178.39" y="2047.5" ></text>
</g>
<g >
<title>[unknown] (6,373 samples, 0.09%)</title><rect x="982.7" y="1493" width="1.0" height="15.0" fill="rgb(228,24,13)" rx="2" ry="2" />
<text  x="985.68" y="1503.5" ></text>
</g>
<g >
<title>H5S_hyper_iter_init (1,251 samples, 0.02%)</title><rect x="12.7" y="2037" width="0.2" height="15.0" fill="rgb(236,183,53)" rx="2" ry="2" />
<text  x="15.73" y="2047.5" ></text>
</g>
<g >
<title>[unknown] (6,067 samples, 0.09%)</title><rect x="982.7" y="837" width="1.0" height="15.0" fill="rgb(207,153,44)" rx="2" ry="2" />
<text  x="985.72" y="847.5" ></text>
</g>
<g >
<title>[unknown] (5,913 samples, 0.08%)</title><rect x="982.7" y="453" width="1.0" height="15.0" fill="rgb(210,168,20)" rx="2" ry="2" />
<text  x="985.75" y="463.5" ></text>
</g>
<g >
<title>[unknown] (6,299 samples, 0.09%)</title><rect x="982.7" y="1333" width="1.0" height="15.0" fill="rgb(220,62,42)" rx="2" ry="2" />
<text  x="985.69" y="1343.5" ></text>
</g>
<g >
<title>[unknown] (5,865 samples, 0.08%)</title><rect x="982.8" y="293" width="0.9" height="15.0" fill="rgb(251,35,38)" rx="2" ry="2" />
<text  x="985.75" y="303.5" ></text>
</g>
<g >
<title>[unknown] (5,982 samples, 0.08%)</title><rect x="982.7" y="613" width="1.0" height="15.0" fill="rgb(211,54,23)" rx="2" ry="2" />
<text  x="985.74" y="623.5" ></text>
</g>
<g >
<title>[unknown] (5,846 samples, 0.08%)</title><rect x="982.8" y="245" width="0.9" height="15.0" fill="rgb(216,89,22)" rx="2" ry="2" />
<text  x="985.76" y="255.5" ></text>
</g>
<g >
<title>[unknown] (930 samples, 0.01%)</title><rect x="145.7" y="2021" width="0.2" height="15.0" fill="rgb(246,141,49)" rx="2" ry="2" />
<text  x="148.73" y="2031.5" ></text>
</g>
<g >
<title>CountListItems (69,212 samples, 0.97%)</title><rect x="163.7" y="2021" width="11.5" height="15.0" fill="rgb(218,94,43)" rx="2" ry="2" />
<text  x="166.71" y="2031.5" ></text>
</g>
<g >
<title>[unknown] (6,429 samples, 0.09%)</title><rect x="982.7" y="1573" width="1.0" height="15.0" fill="rgb(248,39,11)" rx="2" ry="2" />
<text  x="985.67" y="1583.5" ></text>
</g>
<g >
<title>[unknown] (5,822 samples, 0.08%)</title><rect x="982.8" y="149" width="0.9" height="15.0" fill="rgb(213,189,21)" rx="2" ry="2" />
<text  x="985.76" y="159.5" ></text>
</g>
<g >
<title>[unknown] (6,773 samples, 0.10%)</title><rect x="982.6" y="1861" width="1.1" height="15.0" fill="rgb(229,36,32)" rx="2" ry="2" />
<text  x="985.62" y="1871.5" ></text>
</g>
<g >
<title>write_longitude (2,254 samples, 0.03%)</title><rect x="1027.7" y="2021" width="0.4" height="15.0" fill="rgb(216,23,12)" rx="2" ry="2" />
<text  x="1030.75" y="2031.5" ></text>
</g>
<g >
<title>[unknown] (6,821 samples, 0.10%)</title><rect x="982.6" y="1909" width="1.1" height="15.0" fill="rgb(225,117,53)" rx="2" ry="2" />
<text  x="985.62" y="1919.5" ></text>
</g>
<g >
<title>[unknown] (6,020 samples, 0.08%)</title><rect x="982.7" y="709" width="1.0" height="15.0" fill="rgb(222,57,13)" rx="2" ry="2" />
<text  x="985.73" y="719.5" ></text>
</g>
<g >
<title>[unknown] (6,079 samples, 0.09%)</title><rect x="982.7" y="869" width="1.0" height="15.0" fill="rgb(246,17,37)" rx="2" ry="2" />
<text  x="985.72" y="879.5" ></text>
</g>
<g >
<title>H5D__chunk_lock (2,761 samples, 0.04%)</title><rect x="981.8" y="1989" width="0.4" height="15.0" fill="rgb(239,108,26)" rx="2" ry="2" />
<text  x="984.77" y="1999.5" ></text>
</g>
<g >
<title>_int_malloc (5,833 samples, 0.08%)</title><rect x="1049.3" y="2037" width="0.9" height="15.0" fill="rgb(230,166,7)" rx="2" ry="2" />
<text  x="1052.26" y="2047.5" ></text>
</g>
<g >
<title>[unknown] (6,788 samples, 0.10%)</title><rect x="982.6" y="1877" width="1.1" height="15.0" fill="rgb(225,8,50)" rx="2" ry="2" />
<text  x="985.62" y="1887.5" ></text>
</g>
<g >
<title>H5B_find (1,429 samples, 0.02%)</title><rect x="10.1" y="2037" width="0.3" height="15.0" fill="rgb(248,9,6)" rx="2" ry="2" />
<text  x="13.14" y="2047.5" ></text>
</g>
<g >
<title>free (916 samples, 0.01%)</title><rect x="985.3" y="2005" width="0.1" height="15.0" fill="rgb(239,150,20)" rx="2" ry="2" />
<text  x="988.26" y="2015.5" ></text>
</g>
<g >
<title>free (2,641 samples, 0.04%)</title><rect x="1006.8" y="2021" width="0.4" height="15.0" fill="rgb(236,7,30)" rx="2" ry="2" />
<text  x="1009.80" y="2031.5" ></text>
</g>
<g >
<title>H5D__chunk_lookup (638 samples, 0.01%)</title><rect x="176.1" y="2021" width="0.1" height="15.0" fill="rgb(220,101,52)" rx="2" ry="2" />
<text  x="179.09" y="2031.5" ></text>
</g>
<g >
<title>write_optics (5,708 samples, 0.08%)</title><rect x="1189.1" y="2037" width="0.9" height="15.0" fill="rgb(206,27,26)" rx="2" ry="2" />
<text  x="1192.05" y="2047.5" ></text>
</g>
<g >
<title>H5S_select_iter_init (895 samples, 0.01%)</title><rect x="982.4" y="1973" width="0.2" height="15.0" fill="rgb(250,184,11)" rx="2" ry="2" />
<text  x="985.44" y="1983.5" ></text>
</g>
<g >
<title>inflate (946 samples, 0.01%)</title><rect x="1176.3" y="2037" width="0.1" height="15.0" fill="rgb(217,38,15)" rx="2" ry="2" />
<text  x="1179.25" y="2047.5" ></text>
</g>
<g >
<title>[unknown] (6,703 samples, 0.09%)</title><rect x="982.6" y="1813" width="1.1" height="15.0" fill="rgb(236,167,15)" rx="2" ry="2" />
<text  x="985.63" y="1823.5" ></text>
</g>
<g >
<title>[unknown] (5,838 samples, 0.08%)</title><rect x="982.8" y="197" width="0.9" height="15.0" fill="rgb(208,0,14)" rx="2" ry="2" />
<text  x="985.76" y="207.5" ></text>
</g>
<g >
<title>[unknown] (5,975 samples, 0.08%)</title><rect x="982.7" y="597" width="1.0" height="15.0" fill="rgb(228,27,41)" rx="2" ry="2" />
<text  x="985.74" y="607.5" ></text>
</g>
<g >
<title>fwrite@plt (873 samples, 0.01%)</title><rect x="1176.1" y="2037" width="0.2" height="15.0" fill="rgb(213,106,47)" rx="2" ry="2" />
<text  x="1179.11" y="2047.5" ></text>
</g>
<g >
<title>[unknown] (6,187 samples, 0.09%)</title><rect x="982.7" y="1141" width="1.0" height="15.0" fill="rgb(212,75,23)" rx="2" ry="2" />
<text  x="985.71" y="1151.5" ></text>
</g>
<g >
<title>[unknown] (6,131 samples, 0.09%)</title><rect x="982.7" y="981" width="1.0" height="15.0" fill="rgb(242,58,28)" rx="2" ry="2" />
<text  x="985.71" y="991.5" ></text>
</g>
<g >
<title>[unknown] (6,158 samples, 0.09%)</title><rect x="982.7" y="1045" width="1.0" height="15.0" fill="rgb(239,116,11)" rx="2" ry="2" />
<text  x="985.71" y="1055.5" ></text>
</g>
<g >
<title>[unknown] (1,726 samples, 0.02%)</title><rect x="979.1" y="2005" width="0.3" height="15.0" fill="rgb(247,101,15)" rx="2" ry="2" />
<text  x="982.15" y="2015.5" ></text>
</g>
<g >
<title>[unknown] (1,242 samples, 0.02%)</title><rect x="994.6" y="2005" width="0.2" height="15.0" fill="rgb(246,61,39)" rx="2" ry="2" />
<text  x="997.56" y="2015.5" ></text>
</g>
<g >
<title>[libc-2.17.so] (1,465 samples, 0.02%)</title><rect x="146.3" y="2037" width="0.3" height="15.0" fill="rgb(248,14,34)" rx="2" ry="2" />
<text  x="149.31" y="2047.5" ></text>
</g>
<g >
<title>[unknown] (5,776 samples, 0.08%)</title><rect x="982.8" y="85" width="0.9" height="15.0" fill="rgb(251,15,9)" rx="2" ry="2" />
<text  x="985.77" y="95.5" ></text>
</g>
<g >
<title>[unknown] (6,462 samples, 0.09%)</title><rect x="982.7" y="1621" width="1.0" height="15.0" fill="rgb(253,153,50)" rx="2" ry="2" />
<text  x="985.67" y="1631.5" ></text>
</g>
<g >
<title>[unknown] (6,171 samples, 0.09%)</title><rect x="982.7" y="1093" width="1.0" height="15.0" fill="rgb(217,123,16)" rx="2" ry="2" />
<text  x="985.71" y="1103.5" ></text>
</g>
<g >
<title>[unknown] (5,930 samples, 0.08%)</title><rect x="982.7" y="501" width="1.0" height="15.0" fill="rgb(230,58,2)" rx="2" ry="2" />
<text  x="985.74" y="511.5" ></text>
</g>
<g >
<title>store_product (14,902 samples, 0.21%)</title><rect x="1181.6" y="2037" width="2.4" height="15.0" fill="rgb(233,113,6)" rx="2" ry="2" />
<text  x="1184.56" y="2047.5" ></text>
</g>
<g >
<title>malloc (25,164 samples, 0.35%)</title><rect x="1176.4" y="2037" width="4.2" height="15.0" fill="rgb(227,205,28)" rx="2" ry="2" />
<text  x="1179.41" y="2047.5" ></text>
</g>
<g >
<title>write_latitude (2,045 samples, 0.03%)</title><rect x="1027.4" y="2021" width="0.3" height="15.0" fill="rgb(244,79,12)" rx="2" ry="2" />
<text  x="1030.41" y="2031.5" ></text>
</g>
<g >
<title>H5VM_memcpyvv (3,863 samples, 0.05%)</title><rect x="13.2" y="2037" width="0.7" height="15.0" fill="rgb(249,88,27)" rx="2" ry="2" />
<text  x="16.23" y="2047.5" ></text>
</g>
<g >
<title>[unknown] (6,143 samples, 0.09%)</title><rect x="982.7" y="1013" width="1.0" height="15.0" fill="rgb(234,29,19)" rx="2" ry="2" />
<text  x="985.71" y="1023.5" ></text>
</g>
<g >
<title>[unknown] (38,112 samples, 0.53%)</title><rect x="979.4" y="2021" width="6.3" height="15.0" fill="rgb(218,36,43)" rx="2" ry="2" />
<text  x="982.43" y="2031.5" ></text>
</g>
<g >
<title>[unknown] (5,537 samples, 0.08%)</title><rect x="174.3" y="2005" width="0.9" height="15.0" fill="rgb(251,229,15)" rx="2" ry="2" />
<text  x="177.26" y="2015.5" ></text>
</g>
<g >
<title>swapc_bytes (20,147 samples, 0.28%)</title><rect x="1184.0" y="2037" width="3.4" height="15.0" fill="rgb(205,29,8)" rx="2" ry="2" />
<text  x="1187.03" y="2047.5" ></text>
</g>
<g >
<title>[unknown] (654 samples, 0.01%)</title><rect x="980.2" y="1989" width="0.1" height="15.0" fill="rgb(232,100,16)" rx="2" ry="2" />
<text  x="983.21" y="1999.5" ></text>
</g>
<g >
<title>[unknown] (6,856 samples, 0.10%)</title><rect x="982.6" y="1941" width="1.1" height="15.0" fill="rgb(219,177,25)" rx="2" ry="2" />
<text  x="985.61" y="1951.5" ></text>
</g>
<g >
<title>malloc_consolidate (4,487 samples, 0.06%)</title><rect x="982.8" y="37" width="0.7" height="15.0" fill="rgb(252,17,45)" rx="2" ry="2" />
<text  x="985.77" y="47.5" ></text>
</g>
<g >
<title>[unknown] (5,839 samples, 0.08%)</title><rect x="982.8" y="213" width="0.9" height="15.0" fill="rgb(220,135,30)" rx="2" ry="2" />
<text  x="985.76" y="223.5" ></text>
</g>
<g >
<title>[unknown] (5,956 samples, 0.08%)</title><rect x="982.7" y="533" width="1.0" height="15.0" fill="rgb(235,63,4)" rx="2" ry="2" />
<text  x="985.74" y="543.5" ></text>
</g>
<g >
<title>[unknown] (5,844 samples, 0.08%)</title><rect x="982.8" y="229" width="0.9" height="15.0" fill="rgb(211,24,23)" rx="2" ry="2" />
<text  x="985.76" y="239.5" ></text>
</g>
<g >
<title>[unknown] (1,287 samples, 0.02%)</title><rect x="983.5" y="69" width="0.2" height="15.0" fill="rgb(214,19,24)" rx="2" ry="2" />
<text  x="986.51" y="79.5" ></text>
</g>
<g >
<title>[unknown] (6,211 samples, 0.09%)</title><rect x="982.7" y="1205" width="1.0" height="15.0" fill="rgb(208,22,34)" rx="2" ry="2" />
<text  x="985.70" y="1215.5" ></text>
</g>
<g >
<title>[unknown] (6,577 samples, 0.09%)</title><rect x="982.7" y="1701" width="1.0" height="15.0" fill="rgb(240,31,9)" rx="2" ry="2" />
<text  x="985.65" y="1711.5" ></text>
</g>
<g >
<title>_IO_file_xsputn@@GLIBC_2.2.5 (15,123 samples, 0.21%)</title><rect x="1028.5" y="2037" width="2.5" height="15.0" fill="rgb(247,138,45)" rx="2" ry="2" />
<text  x="1031.45" y="2047.5" ></text>
</g>
<g >
<title>[unknown] (6,751 samples, 0.09%)</title><rect x="982.6" y="1845" width="1.1" height="15.0" fill="rgb(220,117,3)" rx="2" ry="2" />
<text  x="985.63" y="1855.5" ></text>
</g>
<g >
<title>[unknown] (6,901 samples, 0.10%)</title><rect x="982.6" y="1973" width="1.1" height="15.0" fill="rgb(206,8,49)" rx="2" ry="2" />
<text  x="985.61" y="1983.5" ></text>
</g>
<g >
<title>__memcpy_sse2 (8,432 samples, 0.12%)</title><rect x="983.8" y="2005" width="1.4" height="15.0" fill="rgb(252,218,7)" rx="2" ry="2" />
<text  x="986.79" y="2015.5" ></text>
</g>
<g >
<title>H5S_hyper_get_seq_list (4,051 samples, 0.06%)</title><rect x="177.2" y="2021" width="0.7" height="15.0" fill="rgb(243,145,51)" rx="2" ry="2" />
<text  x="180.18" y="2031.5" ></text>
</g>
<g >
<title>write_latitude (4,820 samples, 0.07%)</title><rect x="1187.4" y="2037" width="0.8" height="15.0" fill="rgb(205,84,4)" rx="2" ry="2" />
<text  x="1190.37" y="2047.5" ></text>
</g>
<g >
<title>[unknown] (6,206 samples, 0.09%)</title><rect x="982.7" y="1189" width="1.0" height="15.0" fill="rgb(229,3,35)" rx="2" ry="2" />
<text  x="985.70" y="1199.5" ></text>
</g>
<g >
<title>[unknown] (6,165 samples, 0.09%)</title><rect x="982.7" y="1077" width="1.0" height="15.0" fill="rgb(223,157,39)" rx="2" ry="2" />
<text  x="985.71" y="1087.5" ></text>
</g>
<g >
<title>[unknown] (5,919 samples, 0.08%)</title><rect x="982.7" y="469" width="1.0" height="15.0" fill="rgb(205,197,2)" rx="2" ry="2" />
<text  x="985.75" y="479.5" ></text>
</g>
<g >
<title>[unknown] (6,112 samples, 0.09%)</title><rect x="982.7" y="933" width="1.0" height="15.0" fill="rgb(216,62,0)" rx="2" ry="2" />
<text  x="985.72" y="943.5" ></text>
</g>
<g >
<title>[unknown] (5,894 samples, 0.08%)</title><rect x="982.7" y="405" width="1.0" height="15.0" fill="rgb(234,218,9)" rx="2" ry="2" />
<text  x="985.75" y="415.5" ></text>
</g>
<g >
<title>[unknown] (5,830 samples, 0.08%)</title><rect x="982.8" y="181" width="0.9" height="15.0" fill="rgb(254,87,7)" rx="2" ry="2" />
<text  x="985.76" y="191.5" ></text>
</g>
<g >
<title>[unknown] (6,360 samples, 0.09%)</title><rect x="982.7" y="1445" width="1.0" height="15.0" fill="rgb(254,213,26)" rx="2" ry="2" />
<text  x="985.68" y="1455.5" ></text>
</g>
<g >
<title>[unknown] (5,962 samples, 0.08%)</title><rect x="982.7" y="549" width="1.0" height="15.0" fill="rgb(211,65,12)" rx="2" ry="2" />
<text  x="985.74" y="559.5" ></text>
</g>
<g >
<title>[unknown] (6,476 samples, 0.09%)</title><rect x="982.7" y="1637" width="1.0" height="15.0" fill="rgb(245,221,27)" rx="2" ry="2" />
<text  x="985.66" y="1647.5" ></text>
</g>
<g >
<title>[unknown] (5,825 samples, 0.08%)</title><rect x="982.8" y="165" width="0.9" height="15.0" fill="rgb(239,86,45)" rx="2" ry="2" />
<text  x="985.76" y="175.5" ></text>
</g>
<g >
<title>[unknown] (6,128 samples, 0.09%)</title><rect x="982.7" y="965" width="1.0" height="15.0" fill="rgb(229,176,5)" rx="2" ry="2" />
<text  x="985.71" y="975.5" ></text>
</g>
<g >
<title>[unknown] (6,152 samples, 0.09%)</title><rect x="982.7" y="1029" width="1.0" height="15.0" fill="rgb(252,176,18)" rx="2" ry="2" />
<text  x="985.71" y="1039.5" ></text>
</g>
<g >
<title>[unknown] (6,390 samples, 0.09%)</title><rect x="982.7" y="1525" width="1.0" height="15.0" fill="rgb(234,203,26)" rx="2" ry="2" />
<text  x="985.67" y="1535.5" ></text>
</g>
<g >
<title>[unknown] (5,973 samples, 0.08%)</title><rect x="982.7" y="581" width="1.0" height="15.0" fill="rgb(218,76,12)" rx="2" ry="2" />
<text  x="985.74" y="591.5" ></text>
</g>
<g >
<title>H5S_hyper_free_span_info (3,474 samples, 0.05%)</title><rect x="12.1" y="2037" width="0.6" height="15.0" fill="rgb(229,211,34)" rx="2" ry="2" />
<text  x="15.14" y="2047.5" ></text>
</g>
<g >
<title>CountListItems (5,341 samples, 0.07%)</title><rect x="979.4" y="2005" width="0.9" height="15.0" fill="rgb(240,38,24)" rx="2" ry="2" />
<text  x="982.43" y="2015.5" ></text>
</g>
<g >
<title>[unknown] (6,175 samples, 0.09%)</title><rect x="982.7" y="1109" width="1.0" height="15.0" fill="rgb(211,43,12)" rx="2" ry="2" />
<text  x="985.71" y="1119.5" ></text>
</g>
<g >
<title>[unknown] (6,007 samples, 0.08%)</title><rect x="982.7" y="677" width="1.0" height="15.0" fill="rgb(206,17,7)" rx="2" ry="2" />
<text  x="985.73" y="687.5" ></text>
</g>
<g >
<title>[unknown] (6,050 samples, 0.08%)</title><rect x="982.7" y="773" width="1.0" height="15.0" fill="rgb(206,187,20)" rx="2" ry="2" />
<text  x="985.73" y="783.5" ></text>
</g>
<g >
<title>[unknown] (5,904 samples, 0.08%)</title><rect x="982.7" y="437" width="1.0" height="15.0" fill="rgb(211,67,17)" rx="2" ry="2" />
<text  x="985.75" y="447.5" ></text>
</g>
<g >
<title>[unknown] (6,279 samples, 0.09%)</title><rect x="982.7" y="1301" width="1.0" height="15.0" fill="rgb(238,169,2)" rx="2" ry="2" />
<text  x="985.69" y="1311.5" ></text>
</g>
<g >
<title>memcpy@plt (3,746 samples, 0.05%)</title><rect x="1180.9" y="2037" width="0.6" height="15.0" fill="rgb(237,164,30)" rx="2" ry="2" />
<text  x="1183.87" y="2047.5" ></text>
</g>
<g >
<title>[unknown] (6,366 samples, 0.09%)</title><rect x="982.7" y="1461" width="1.0" height="15.0" fill="rgb(208,184,25)" rx="2" ry="2" />
<text  x="985.68" y="1471.5" ></text>
</g>
<g >
<title>[unknown] (5,778 samples, 0.08%)</title><rect x="982.8" y="101" width="0.9" height="15.0" fill="rgb(245,133,33)" rx="2" ry="2" />
<text  x="985.77" y="111.5" ></text>
</g>
<g >
<title>[unknown] (6,561 samples, 0.09%)</title><rect x="982.7" y="1685" width="1.0" height="15.0" fill="rgb(243,32,0)" rx="2" ry="2" />
<text  x="985.65" y="1695.5" ></text>
</g>
<g >
<title>[unknown] (6,049 samples, 0.08%)</title><rect x="982.7" y="757" width="1.0" height="15.0" fill="rgb(254,62,43)" rx="2" ry="2" />
<text  x="985.73" y="767.5" ></text>
</g>
<g >
<title>[unknown] (6,053 samples, 0.08%)</title><rect x="982.7" y="789" width="1.0" height="15.0" fill="rgb(236,187,34)" rx="2" ry="2" />
<text  x="985.73" y="799.5" ></text>
</g>
<g >
<title>[unknown] (6,686 samples, 0.09%)</title><rect x="982.6" y="1797" width="1.1" height="15.0" fill="rgb(232,165,33)" rx="2" ry="2" />
<text  x="985.64" y="1807.5" ></text>
</g>
<g >
<title>[unknown] (5,968 samples, 0.08%)</title><rect x="982.7" y="565" width="1.0" height="15.0" fill="rgb(252,66,17)" rx="2" ry="2" />
<text  x="985.74" y="575.5" ></text>
</g>
<g >
<title>[unknown] (5,221,780 samples, 73.28%)</title><rect x="163.7" y="2037" width="864.7" height="15.0" fill="rgb(244,109,10)" rx="2" ry="2" />
<text  x="166.71" y="2047.5" >[unknown]</text>
</g>
<g >
<title>[unknown] (6,038 samples, 0.08%)</title><rect x="982.7" y="741" width="1.0" height="15.0" fill="rgb(252,213,40)" rx="2" ry="2" />
<text  x="985.73" y="751.5" ></text>
</g>
<g >
<title>[unknown] (5,855 samples, 0.08%)</title><rect x="982.8" y="261" width="0.9" height="15.0" fill="rgb(219,181,46)" rx="2" ry="2" />
<text  x="985.76" y="271.5" ></text>
</g>
<g >
<title>[unknown] (5,858 samples, 0.08%)</title><rect x="982.8" y="277" width="0.9" height="15.0" fill="rgb(234,100,30)" rx="2" ry="2" />
<text  x="985.76" y="287.5" ></text>
</g>
<g >
<title>[unknown] (6,110 samples, 0.09%)</title><rect x="982.7" y="917" width="1.0" height="15.0" fill="rgb(227,31,53)" rx="2" ry="2" />
<text  x="985.72" y="927.5" ></text>
</g>
<g >
<title>[unknown] (6,308 samples, 0.09%)</title><rect x="982.7" y="1349" width="1.0" height="15.0" fill="rgb(211,37,2)" rx="2" ry="2" />
<text  x="985.69" y="1359.5" ></text>
</g>
<g >
<title>[unknown] (1,286 samples, 0.02%)</title><rect x="983.5" y="53" width="0.2" height="15.0" fill="rgb(252,221,15)" rx="2" ry="2" />
<text  x="986.51" y="63.5" ></text>
</g>
<g >
<title>[unknown] (5,893 samples, 0.08%)</title><rect x="982.8" y="389" width="0.9" height="15.0" fill="rgb(222,121,23)" rx="2" ry="2" />
<text  x="985.75" y="399.5" ></text>
</g>
<g >
<title>[libz.so.1.2.7] (4,836,765 samples, 67.88%)</title><rect x="178.5" y="2021" width="800.9" height="15.0" fill="rgb(254,143,1)" rx="2" ry="2" />
<text  x="181.46" y="2031.5" >[libz.so.1.2.7]</text>
</g>
<g >
<title>[unknown] (5,937 samples, 0.08%)</title><rect x="982.7" y="517" width="1.0" height="15.0" fill="rgb(219,36,14)" rx="2" ry="2" />
<text  x="985.74" y="527.5" ></text>
</g>
<g >
<title>[unknown] (6,663 samples, 0.09%)</title><rect x="982.6" y="1781" width="1.1" height="15.0" fill="rgb(247,76,9)" rx="2" ry="2" />
<text  x="985.64" y="1791.5" ></text>
</g>
<g >
<title>[unknown] (6,245 samples, 0.09%)</title><rect x="982.7" y="1269" width="1.0" height="15.0" fill="rgb(219,117,23)" rx="2" ry="2" />
<text  x="985.70" y="1279.5" ></text>
</g>
<g >
<title>[unknown] (6,451 samples, 0.09%)</title><rect x="982.7" y="1605" width="1.0" height="15.0" fill="rgb(220,148,22)" rx="2" ry="2" />
<text  x="985.67" y="1615.5" ></text>
</g>
<g >
<title>[libz.so.1.2.7] (1,418 samples, 0.02%)</title><rect x="146.3" y="2021" width="0.2" height="15.0" fill="rgb(242,226,10)" rx="2" ry="2" />
<text  x="149.31" y="2031.5" ></text>
</g>
<g >
<title>[unknown] (6,230 samples, 0.09%)</title><rect x="982.7" y="1237" width="1.0" height="15.0" fill="rgb(206,153,54)" rx="2" ry="2" />
<text  x="985.70" y="1247.5" ></text>
</g>
<g >
<title>inflate (111,502 samples, 1.56%)</title><rect x="1007.4" y="2021" width="18.5" height="15.0" fill="rgb(248,68,25)" rx="2" ry="2" />
<text  x="1010.42" y="2031.5" ></text>
</g>
<g >
<title>write_optics (1,927 samples, 0.03%)</title><rect x="1028.1" y="2021" width="0.3" height="15.0" fill="rgb(239,118,33)" rx="2" ry="2" />
<text  x="1031.12" y="2031.5" ></text>
</g>
<g >
<title>_IO_fwrite (1,034 samples, 0.01%)</title><rect x="985.7" y="2021" width="0.2" height="15.0" fill="rgb(210,157,27)" rx="2" ry="2" />
<text  x="988.75" y="2031.5" ></text>
</g>
<g >
<title>write_longitude (5,337 samples, 0.07%)</title><rect x="1188.2" y="2037" width="0.9" height="15.0" fill="rgb(216,59,28)" rx="2" ry="2" />
<text  x="1191.17" y="2047.5" ></text>
</g>
<g >
<title>swapc_bytes (1,180 samples, 0.02%)</title><rect x="1027.2" y="2021" width="0.2" height="15.0" fill="rgb(242,46,18)" rx="2" ry="2" />
<text  x="1030.22" y="2031.5" ></text>
</g>
<g >
<title>[unknown] (6,027 samples, 0.08%)</title><rect x="982.7" y="725" width="1.0" height="15.0" fill="rgb(211,222,34)" rx="2" ry="2" />
<text  x="985.73" y="735.5" ></text>
</g>
<g >
<title>adler32 (755,798 samples, 10.61%)</title><rect x="1050.2" y="2037" width="125.2" height="15.0" fill="rgb(225,170,19)" rx="2" ry="2" />
<text  x="1053.23" y="2047.5" >adler32</text>
</g>
<g >
<title>H5SL_insert_common (1,398 samples, 0.02%)</title><rect x="980.9" y="2005" width="0.3" height="15.0" fill="rgb(232,115,17)" rx="2" ry="2" />
<text  x="983.93" y="2015.5" ></text>
</g>
<g >
<title>[unknown] (6,491 samples, 0.09%)</title><rect x="982.7" y="1653" width="1.0" height="15.0" fill="rgb(233,72,51)" rx="2" ry="2" />
<text  x="985.66" y="1663.5" ></text>
</g>
<g >
<title>__memcpy_ssse3_back (65,950 samples, 0.93%)</title><rect x="1037.8" y="2037" width="10.9" height="15.0" fill="rgb(218,210,37)" rx="2" ry="2" />
<text  x="1040.79" y="2047.5" ></text>
</g>
<g >
<title>[unknown] (6,333 samples, 0.09%)</title><rect x="982.7" y="1397" width="1.0" height="15.0" fill="rgb(236,42,53)" rx="2" ry="2" />
<text  x="985.68" y="1407.5" ></text>
</g>
<g >
<title>[unknown] (6,182 samples, 0.09%)</title><rect x="982.7" y="1125" width="1.0" height="15.0" fill="rgb(213,76,1)" rx="2" ry="2" />
<text  x="985.71" y="1135.5" ></text>
</g>
<g >
<title>[unknown] (6,840 samples, 0.10%)</title><rect x="982.6" y="1925" width="1.1" height="15.0" fill="rgb(230,213,32)" rx="2" ry="2" />
<text  x="985.61" y="1935.5" ></text>
</g>
<g >
<title>[unknown] (6,717 samples, 0.09%)</title><rect x="982.6" y="1829" width="1.1" height="15.0" fill="rgb(238,75,50)" rx="2" ry="2" />
<text  x="985.63" y="1839.5" ></text>
</g>
<g >
<title>H5SL_search (1,806 samples, 0.03%)</title><rect x="176.4" y="2021" width="0.3" height="15.0" fill="rgb(211,184,11)" rx="2" ry="2" />
<text  x="179.44" y="2031.5" ></text>
</g>
<g >
<title>[unknown] (5,871 samples, 0.08%)</title><rect x="982.8" y="325" width="0.9" height="15.0" fill="rgb(244,135,19)" rx="2" ry="2" />
<text  x="985.75" y="335.5" ></text>
</g>
<g >
<title>[libc-2.17.so] (1,841 samples, 0.03%)</title><rect x="178.2" y="2021" width="0.3" height="15.0" fill="rgb(221,136,21)" rx="2" ry="2" />
<text  x="181.16" y="2031.5" ></text>
</g>
<g >
<title>[unknown] (12,354 samples, 0.17%)</title><rect x="981.7" y="2005" width="2.1" height="15.0" fill="rgb(205,6,41)" rx="2" ry="2" />
<text  x="984.73" y="2015.5" ></text>
</g>
<g >
<title>[unknown] (6,590 samples, 0.09%)</title><rect x="982.6" y="1717" width="1.1" height="15.0" fill="rgb(224,159,14)" rx="2" ry="2" />
<text  x="985.65" y="1727.5" ></text>
</g>
<g >
<title>[unknown] (5,806 samples, 0.08%)</title><rect x="982.8" y="117" width="0.9" height="15.0" fill="rgb(225,222,53)" rx="2" ry="2" />
<text  x="985.76" y="127.5" ></text>
</g>
<g >
<title>_int_free (3,173 samples, 0.04%)</title><rect x="1048.7" y="2037" width="0.6" height="15.0" fill="rgb(213,2,9)" rx="2" ry="2" />
<text  x="1051.73" y="2047.5" ></text>
</g>
<g >
<title>[unknown] (6,327 samples, 0.09%)</title><rect x="982.7" y="1381" width="1.0" height="15.0" fill="rgb(213,209,31)" rx="2" ry="2" />
<text  x="985.68" y="1391.5" ></text>
</g>
<g >
<title>_int_malloc (36,502 samples, 0.51%)</title><rect x="1000.3" y="2021" width="6.0" height="15.0" fill="rgb(222,49,22)" rx="2" ry="2" />
<text  x="1003.28" y="2031.5" ></text>
</g>
<g >
<title>[unknown] (6,370 samples, 0.09%)</title><rect x="982.7" y="1477" width="1.0" height="15.0" fill="rgb(239,20,28)" rx="2" ry="2" />
<text  x="985.68" y="1487.5" ></text>
</g>
<g >
<title>[unknown] (6,351 samples, 0.09%)</title><rect x="982.7" y="1429" width="1.0" height="15.0" fill="rgb(220,225,4)" rx="2" ry="2" />
<text  x="985.68" y="1439.5" ></text>
</g>
<g >
<title>[unknown] (6,200 samples, 0.09%)</title><rect x="982.7" y="1173" width="1.0" height="15.0" fill="rgb(218,45,28)" rx="2" ry="2" />
<text  x="985.70" y="1183.5" ></text>
</g>
<g >
<title>[unknown] (6,615 samples, 0.09%)</title><rect x="982.6" y="1733" width="1.1" height="15.0" fill="rgb(240,133,54)" rx="2" ry="2" />
<text  x="985.65" y="1743.5" ></text>
</g>
<g >
<title>H5C_protect (2,249 samples, 0.03%)</title><rect x="980.3" y="2005" width="0.4" height="15.0" fill="rgb(221,214,17)" rx="2" ry="2" />
<text  x="983.32" y="2015.5" ></text>
</g>
<g >
<title>_int_realloc (2,626 samples, 0.04%)</title><rect x="1006.3" y="2021" width="0.5" height="15.0" fill="rgb(205,135,12)" rx="2" ry="2" />
<text  x="1009.32" y="2031.5" ></text>
</g>
<g >
<title>[unknown] (6,059 samples, 0.09%)</title><rect x="982.7" y="805" width="1.0" height="15.0" fill="rgb(229,117,42)" rx="2" ry="2" />
<text  x="985.72" y="815.5" ></text>
</g>
<g >
<title>[unknown] (6,196 samples, 0.09%)</title><rect x="982.7" y="1157" width="1.0" height="15.0" fill="rgb(207,220,1)" rx="2" ry="2" />
<text  x="985.70" y="1167.5" ></text>
</g>
<g >
<title>[unknown] (6,076 samples, 0.09%)</title><rect x="982.7" y="853" width="1.0" height="15.0" fill="rgb(223,204,44)" rx="2" ry="2" />
<text  x="985.72" y="863.5" ></text>
</g>
<g >
<title>[unknown] (6,807 samples, 0.10%)</title><rect x="982.6" y="1893" width="1.1" height="15.0" fill="rgb(205,35,21)" rx="2" ry="2" />
<text  x="985.62" y="1903.5" ></text>
</g>
<g >
<title>malloc@plt (1,786 samples, 0.03%)</title><rect x="1180.6" y="2037" width="0.3" height="15.0" fill="rgb(240,177,52)" rx="2" ry="2" />
<text  x="1183.58" y="2047.5" ></text>
</g>
<g >
<title>[libz.so.1.2.7] (103,609 samples, 1.45%)</title><rect x="146.6" y="2037" width="17.1" height="15.0" fill="rgb(251,105,16)" rx="2" ry="2" />
<text  x="149.56" y="2047.5" ></text>
</g>
<g >
<title>malloc_consolidate (7,368 samples, 0.10%)</title><rect x="1025.9" y="2021" width="1.2" height="15.0" fill="rgb(253,4,38)" rx="2" ry="2" />
<text  x="1028.89" y="2031.5" ></text>
</g>
<g >
<title>[unknown] (6,509 samples, 0.09%)</title><rect x="982.7" y="1669" width="1.0" height="15.0" fill="rgb(246,201,47)" rx="2" ry="2" />
<text  x="985.66" y="1679.5" ></text>
</g>
<g >
<title>[unknown] (5,816 samples, 0.08%)</title><rect x="982.8" y="133" width="0.9" height="15.0" fill="rgb(212,51,50)" rx="2" ry="2" />
<text  x="985.76" y="143.5" ></text>
</g>
<g >
<title>[unknown] (6,881 samples, 0.10%)</title><rect x="982.6" y="1957" width="1.1" height="15.0" fill="rgb(242,114,17)" rx="2" ry="2" />
<text  x="985.61" y="1967.5" ></text>
</g>
<g >
<title>[unknown] (6,085 samples, 0.09%)</title><rect x="982.7" y="885" width="1.0" height="15.0" fill="rgb(227,106,46)" rx="2" ry="2" />
<text  x="985.72" y="895.5" ></text>
</g>
<g >
<title>[unknown] (5,886 samples, 0.08%)</title><rect x="982.8" y="373" width="0.9" height="15.0" fill="rgb(249,101,14)" rx="2" ry="2" />
<text  x="985.75" y="383.5" ></text>
</g>
<g >
<title>[unknown] (5,878 samples, 0.08%)</title><rect x="982.8" y="357" width="0.9" height="15.0" fill="rgb(254,102,22)" rx="2" ry="2" />
<text  x="985.75" y="367.5" ></text>
</g>
<g >
<title>H5D__btree_cmp3 (4,973 samples, 0.07%)</title><rect x="10.4" y="2037" width="0.8" height="15.0" fill="rgb(220,151,27)" rx="2" ry="2" />
<text  x="13.39" y="2047.5" ></text>
</g>
<g >
<title>_IO_fwrite (34,991 samples, 0.49%)</title><rect x="1031.0" y="2037" width="5.8" height="15.0" fill="rgb(242,214,8)" rx="2" ry="2" />
<text  x="1033.96" y="2047.5" ></text>
</g>
<g >
<title>H5FL_reg_malloc (697 samples, 0.01%)</title><rect x="983.6" y="37" width="0.1" height="15.0" fill="rgb(216,180,27)" rx="2" ry="2" />
<text  x="986.58" y="47.5" ></text>
</g>
<g >
<title>__GI___mempcpy (6,232 samples, 0.09%)</title><rect x="1036.8" y="2037" width="1.0" height="15.0" fill="rgb(216,164,19)" rx="2" ry="2" />
<text  x="1039.75" y="2047.5" ></text>
</g>
<g >
<title>[unknown] (4,487 samples, 0.06%)</title><rect x="982.8" y="53" width="0.7" height="15.0" fill="rgb(230,101,17)" rx="2" ry="2" />
<text  x="985.77" y="63.5" ></text>
</g>
<g >
<title>[unknown] (6,097 samples, 0.09%)</title><rect x="982.7" y="901" width="1.0" height="15.0" fill="rgb(237,129,20)" rx="2" ry="2" />
<text  x="985.72" y="911.5" ></text>
</g>
<g >
<title>H5D__chunk_lock (1,721 samples, 0.02%)</title><rect x="175.8" y="2021" width="0.3" height="15.0" fill="rgb(220,197,4)" rx="2" ry="2" />
<text  x="178.80" y="2031.5" ></text>
</g>
<g >
<title>[unknown] (6,386 samples, 0.09%)</title><rect x="982.7" y="1509" width="1.0" height="15.0" fill="rgb(219,62,5)" rx="2" ry="2" />
<text  x="985.67" y="1519.5" ></text>
</g>
<g >
<title>[unknown] (6,118 samples, 0.09%)</title><rect x="982.7" y="949" width="1.0" height="15.0" fill="rgb(218,102,3)" rx="2" ry="2" />
<text  x="985.72" y="959.5" ></text>
</g>
<g >
<title>all (7,125,590 samples, 100%)</title><rect x="10.0" y="2069" width="1180.0" height="15.0" fill="rgb(225,99,25)" rx="2" ry="2" />
<text  x="13.00" y="2079.5" ></text>
</g>
<g >
<title>[unknown] (1,840 samples, 0.03%)</title><rect x="178.2" y="2005" width="0.3" height="15.0" fill="rgb(249,188,21)" rx="2" ry="2" />
<text  x="181.16" y="2015.5" ></text>
</g>
<g >
<title>[unknown] (6,063 samples, 0.09%)</title><rect x="982.7" y="821" width="1.0" height="15.0" fill="rgb(217,117,38)" rx="2" ry="2" />
<text  x="985.72" y="831.5" ></text>
</g>
<g >
<title>[unknown] (6,316 samples, 0.09%)</title><rect x="982.7" y="1365" width="1.0" height="15.0" fill="rgb(241,157,19)" rx="2" ry="2" />
<text  x="985.68" y="1375.5" ></text>
</g>
<g >
<title>[unknown] (6,238 samples, 0.09%)</title><rect x="982.7" y="1253" width="1.0" height="15.0" fill="rgb(251,82,39)" rx="2" ry="2" />
<text  x="985.70" y="1263.5" ></text>
</g>
<g >
<title>[unknown] (5,868 samples, 0.08%)</title><rect x="982.8" y="309" width="0.9" height="15.0" fill="rgb(232,82,54)" rx="2" ry="2" />
<text  x="985.75" y="319.5" ></text>
</g>
<g >
<title>[unknown] (6,163 samples, 0.09%)</title><rect x="982.7" y="1061" width="1.0" height="15.0" fill="rgb(254,129,48)" rx="2" ry="2" />
<text  x="985.71" y="1071.5" ></text>
</g>
<g >
<title>[unknown] (6,341 samples, 0.09%)</title><rect x="982.7" y="1413" width="1.0" height="15.0" fill="rgb(252,179,28)" rx="2" ry="2" />
<text  x="985.68" y="1423.5" ></text>
</g>
<g >
<title>FreeListItems (3,348 samples, 0.05%)</title><rect x="175.2" y="2021" width="0.5" height="15.0" fill="rgb(226,109,25)" rx="2" ry="2" />
<text  x="178.18" y="2031.5" ></text>
</g>
<g >
<title>[unknown] (5,925 samples, 0.08%)</title><rect x="982.7" y="485" width="1.0" height="15.0" fill="rgb(227,170,0)" rx="2" ry="2" />
<text  x="985.75" y="495.5" ></text>
</g>
<g >
<title>malloc_consolidate (1,839 samples, 0.03%)</title><rect x="178.2" y="1989" width="0.3" height="15.0" fill="rgb(221,20,32)" rx="2" ry="2" />
<text  x="181.16" y="1999.5" ></text>
</g>
<g >
<title>[unknown] (6,413 samples, 0.09%)</title><rect x="982.7" y="1557" width="1.0" height="15.0" fill="rgb(237,48,19)" rx="2" ry="2" />
<text  x="985.67" y="1567.5" ></text>
</g>
<g >
<title>[unknown] (5,986 samples, 0.08%)</title><rect x="982.7" y="629" width="1.0" height="15.0" fill="rgb(227,148,49)" rx="2" ry="2" />
<text  x="985.74" y="639.5" ></text>
</g>
<g >
<title>[unknown] (5,995 samples, 0.08%)</title><rect x="982.7" y="645" width="1.0" height="15.0" fill="rgb(232,129,37)" rx="2" ry="2" />
<text  x="985.73" y="655.5" ></text>
</g>
<g >
<title>H5Z_pipeline (617 samples, 0.01%)</title><rect x="145.9" y="2037" width="0.1" height="15.0" fill="rgb(240,8,38)" rx="2" ry="2" />
<text  x="148.89" y="2047.5" ></text>
</g>
<g >
<title>_int_free (32,247 samples, 0.45%)</title><rect x="994.9" y="2021" width="5.4" height="15.0" fill="rgb(235,228,46)" rx="2" ry="2" />
<text  x="997.94" y="2031.5" ></text>
</g>
<g >
<title>[libc-2.17.so] (4,488 samples, 0.06%)</title><rect x="982.8" y="69" width="0.7" height="15.0" fill="rgb(233,148,29)" rx="2" ry="2" />
<text  x="985.77" y="79.5" ></text>
</g>
<g >
<title>free@plt (683 samples, 0.01%)</title><rect x="1007.2" y="2021" width="0.2" height="15.0" fill="rgb(223,182,22)" rx="2" ry="2" />
<text  x="1010.24" y="2031.5" ></text>
</g>
<g >
<title>__memcpy_sse2 (52,798 samples, 0.74%)</title><rect x="986.0" y="2021" width="8.8" height="15.0" fill="rgb(233,148,34)" rx="2" ry="2" />
<text  x="989.02" y="2031.5" ></text>
</g>
<g >
<title>[unknown] (6,443 samples, 0.09%)</title><rect x="982.7" y="1589" width="1.0" height="15.0" fill="rgb(241,76,2)" rx="2" ry="2" />
<text  x="985.67" y="1599.5" ></text>
</g>
<g >
<title>H5S_hyper_release (926 samples, 0.01%)</title><rect x="13.0" y="2037" width="0.1" height="15.0" fill="rgb(212,170,10)" rx="2" ry="2" />
<text  x="15.97" y="2047.5" ></text>
</g>
<g >
<title>[unknown] (5,874 samples, 0.08%)</title><rect x="982.8" y="341" width="0.9" height="15.0" fill="rgb(226,113,1)" rx="2" ry="2" />
<text  x="985.75" y="351.5" ></text>
</g>
<g >
<title>[unknown] (6,138 samples, 0.09%)</title><rect x="982.7" y="997" width="1.0" height="15.0" fill="rgb(217,168,28)" rx="2" ry="2" />
<text  x="985.71" y="1007.5" ></text>
</g>
<g >
<title>free@plt (926 samples, 0.01%)</title><rect x="1176.0" y="2037" width="0.1" height="15.0" fill="rgb(208,49,24)" rx="2" ry="2" />
<text  x="1178.95" y="2047.5" ></text>
</g>
<g >
<title>[unknown] (6,251 samples, 0.09%)</title><rect x="982.7" y="1285" width="1.0" height="15.0" fill="rgb(210,128,17)" rx="2" ry="2" />
<text  x="985.70" y="1295.5" ></text>
</g>
<g >
<title>[unknown] (6,400 samples, 0.09%)</title><rect x="982.7" y="1541" width="1.0" height="15.0" fill="rgb(218,115,5)" rx="2" ry="2" />
<text  x="985.67" y="1551.5" ></text>
</g>
<g >
<title>realloc (731 samples, 0.01%)</title><rect x="985.6" y="2005" width="0.1" height="15.0" fill="rgb(214,2,29)" rx="2" ry="2" />
<text  x="988.56" y="2015.5" ></text>
</g>
<g >
<title>[unknown] (6,633 samples, 0.09%)</title><rect x="982.6" y="1749" width="1.1" height="15.0" fill="rgb(211,198,25)" rx="2" ry="2" />
<text  x="985.64" y="1759.5" ></text>
</g>
<g >
<title>visor_gops_pars (7,125,590 samples, 100.00%)</title><rect x="10.0" y="2053" width="1180.0" height="15.0" fill="rgb(216,12,54)" rx="2" ry="2" />
<text  x="13.00" y="2063.5" >visor_gops_pars</text>
</g>
<g >
<title>[unknown] (6,290 samples, 0.09%)</title><rect x="982.7" y="1317" width="1.0" height="15.0" fill="rgb(223,80,42)" rx="2" ry="2" />
<text  x="985.69" y="1327.5" ></text>
</g>
<g >
<title>NewNode (1,952 samples, 0.03%)</title><rect x="146.0" y="2037" width="0.3" height="15.0" fill="rgb(237,97,47)" rx="2" ry="2" />
<text  x="148.99" y="2047.5" ></text>
</g>
</g>
</svg>
